<?xml version="1.0" encoding="utf-8"?>
<!-- Generated by Mocodo 4.2.8 -->
<svg width="1122" height="377" viewBox="0 0 1122 377" xmlns="http://www.w3.org/2000/svg">
<rect x="0" y="0" width="1122" height="377" fill="#f5f5f5" stroke="none" stroke-width="0"/>

<!-- Association BELONGS_TO -->
<g>
	<line x1="310" y1="99" x2="184" y2="99" stroke="#bf812d" stroke-width="1.5"/>
	<line x1="56" y1="99" x2="184" y2="99" stroke="#bf812d" stroke-width="1.5"/>
	<g>
		<path d="M218 71 a14 14 90 0 1 14 14 V98 h-96 V85 a14 14 90 0 1 14 -14" fill="#dfc27d" stroke="#dfc27d" stroke-width="0"/>
		<path d="M232 98 v15 a14 14 90 0 1 -14 14 H150 a14 14 90 0 1 -14 -14 V98 H96" fill="#f6e8c3" stroke="#f6e8c3" stroke-width="0"/>
		<rect x="136" y="71" width="96" height="56" fill="none" rx="14" stroke="#bf812d" stroke-width="3"/>
		<line x1="136" y1="98" x2="232" y2="98" stroke="#bf812d" stroke-width="1.5"/>
		<text x="145" y="91.3" fill="#000000" font-family="Arial Black" font-size="13">belongs_to</text>
	</g>
	<text x="238" y="116" fill="#01665e" font-family="Arial" font-size="12">0,N</text>
	<text x="109" y="116" fill="#01665e" font-family="Arial" font-size="12">1,1</text>
</g>

<!-- Association PART_OF -->
<g>
	<line x1="747" y1="99" x2="586" y2="99" stroke="#bf812d" stroke-width="1.5"/>
	<line x1="453" y1="99" x2="586" y2="99" stroke="#bf812d" stroke-width="1.5"/>
	<g>
		<path d="M606 71 a14 14 90 0 1 14 14 V98 h-68 V85 a14 14 90 0 1 14 -14" fill="#dfc27d" stroke="#dfc27d" stroke-width="0"/>
		<path d="M620 98 v15 a14 14 90 0 1 -14 14 H566 a14 14 90 0 1 -14 -14 V98 H68" fill="#f6e8c3" stroke="#f6e8c3" stroke-width="0"/>
		<rect x="552" y="71" width="68" height="56" fill="none" rx="14" stroke="#bf812d" stroke-width="3"/>
		<line x1="552" y1="98" x2="620" y2="98" stroke="#bf812d" stroke-width="1.5"/>
		<text x="561" y="91.3" fill="#000000" font-family="Arial Black" font-size="13">part_of</text>
	</g>
	<text x="626" y="116" fill="#01665e" font-family="Arial" font-size="12">0,N</text>
	<text x="504" y="116" fill="#01665e" font-family="Arial" font-size="12">1,1</text>
</g>

<!-- Association HAS_SUBTYPES -->
<g>
	<line x1="747" y1="99" x2="932" y2="99" stroke="#bf812d" stroke-width="1.5"/>
	<line x1="932" y1="278" x2="932" y2="99" stroke="#bf812d" stroke-width="1.5"/>
	<g>
		<path d="M976 71 a14 14 90 0 1 14 14 V98 h-116 V85 a14 14 90 0 1 14 -14" fill="#dfc27d" stroke="#dfc27d" stroke-width="0"/>
		<path d="M990 98 v15 a14 14 90 0 1 -14 14 H888 a14 14 90 0 1 -14 -14 V98 H116" fill="#f6e8c3" stroke="#f6e8c3" stroke-width="0"/>
		<rect x="874" y="71" width="116" height="56" fill="none" rx="14" stroke="#bf812d" stroke-width="3"/>
		<line x1="874" y1="98" x2="990" y2="98" stroke="#bf812d" stroke-width="1.5"/>
		<text x="884" y="91.3" fill="#000000" font-family="Arial Black" font-size="13">has_subtypes</text>
	</g>
	<text x="847" y="116" fill="#01665e" font-family="Arial" font-size="12">0,N</text>
	<text x="938" y="197" fill="#01665e" font-family="Arial" font-size="12">1,1</text>
</g>

<!-- Association HAS_COMMENTS -->
<g>
	<line x1="453" y1="278" x2="310" y2="278" stroke="#bf812d" stroke-width="1.5"/>
	<line x1="310" y1="99" x2="310" y2="278" stroke="#bf812d" stroke-width="1.5"/>
	<g>
		<path d="M359 250 a14 14 90 0 1 14 14 V277 h-126 V264 a14 14 90 0 1 14 -14" fill="#dfc27d" stroke="#dfc27d" stroke-width="0"/>
		<path d="M373 277 v15 a14 14 90 0 1 -14 14 H261 a14 14 90 0 1 -14 -14 V277 H126" fill="#f6e8c3" stroke="#f6e8c3" stroke-width="0"/>
		<rect x="247" y="250" width="126" height="56" fill="none" rx="14" stroke="#bf812d" stroke-width="3"/>
		<line x1="247" y1="277" x2="373" y2="277" stroke="#bf812d" stroke-width="1.5"/>
		<text x="257" y="270.3" fill="#000000" font-family="Arial Black" font-size="13">has_comments</text>
	</g>
	<text x="379" y="295" fill="#01665e" font-family="Arial" font-size="12">0,N</text>
	<text x="316" y="206" fill="#01665e" font-family="Arial" font-size="12">1,1</text>
</g>

<!-- Association AUTHORED_BY -->
<g>
	<line x1="453" y1="278" x2="586" y2="278" stroke="#bf812d" stroke-width="1.5"/>
	<line x1="747" y1="278" x2="586" y2="278" stroke="#bf812d" stroke-width="1.5"/>
	<g>
		<path d="M625 250 a14 14 90 0 1 14 14 V277 h-106 V264 a14 14 90 0 1 14 -14" fill="#dfc27d" stroke="#dfc27d" stroke-width="0"/>
		<path d="M639 277 v15 a14 14 90 0 1 -14 14 H547 a14 14 90 0 1 -14 -14 V277 H106" fill="#f6e8c3" stroke="#f6e8c3" stroke-width="0"/>
		<rect x="533" y="250" width="106" height="56" fill="none" rx="14" stroke="#bf812d" stroke-width="3"/>
		<line x1="533" y1="277" x2="639" y2="277" stroke="#bf812d" stroke-width="1.5"/>
		<text x="542" y="270.3" fill="#000000" font-family="Arial Black" font-size="13">authored_by</text>
	</g>
	<text x="506" y="295" fill="#01665e" font-family="Arial" font-size="12">0,N</text>
	<text x="677" y="295" fill="#01665e" font-family="Arial" font-size="12">1,1</text>
</g>

<!-- Association OF_TYPE -->
<g>
	<line x1="932" y1="278" x2="1068" y2="278" stroke="#bf812d" stroke-width="1.5"/>
	<line x1="1068" y1="99" x2="1068" y2="278" stroke="#bf812d" stroke-width="1.5"/>
	<g>
		<path d="M1089 250 a14 14 90 0 1 14 14 V277 h-70 V264 a14 14 90 0 1 14 -14" fill="#dfc27d" stroke="#dfc27d" stroke-width="0"/>
		<path d="M1103 277 v15 a14 14 90 0 1 -14 14 H1047 a14 14 90 0 1 -14 -14 V277 H70" fill="#f6e8c3" stroke="#f6e8c3" stroke-width="0"/>
		<rect x="1033" y="250" width="70" height="56" fill="none" rx="14" stroke="#bf812d" stroke-width="3"/>
		<line x1="1033" y1="277" x2="1103" y2="277" stroke="#bf812d" stroke-width="1.5"/>
		<text x="1042" y="270.3" fill="#000000" font-family="Arial Black" font-size="13">of_type</text>
	</g>
	<text x="998" y="295" fill="#01665e" font-family="Arial" font-size="12">0,N</text>
	<text x="1074" y="179" fill="#01665e" font-family="Arial" font-size="12">1,1</text>
</g>

<!-- Entity CATEGORIES -->
<g>
	<g>
		<rect x="9" y="36" width="94" height="28" fill="#80cdc1" stroke="none" stroke-width="0" opacity="1"/>
		<rect x="9" y="64" width="94" height="98" fill="#c7eae5" stroke="none" stroke-width="0" opacity="1"/>
		<rect x="9" y="36" width="94" height="126" fill="none" stroke="#35978f" stroke-width="3" opacity="1"/>
		<line x1="9" y1="64" x2="103" y2="64" stroke="#35978f" stroke-width="1.5"/>
	</g>
	<text x="17" y="56.3" fill="#000000" font-family="Arial Black" font-size="13">Categories</text>
	<text x="17" y="80.2" fill="#000000" font-family="Arial" font-size="14">id</text>
	<line x1="17" y1="83" x2="29" y2="83" stroke="#000000" stroke-width="1.2"/>
	<text x="17" y="98.2" fill="#000000" font-family="Arial" font-size="14">name</text>
	<text x="17" y="116.2" fill="#000000" font-family="Arial" font-size="14">slug</text>
	<text x="17" y="134.2" fill="#000000" font-family="Arial" font-size="14">created_at</text>
	<text x="17" y="152.2" fill="#000000" font-family="Arial" font-size="14">updated_at</text>
</g>

<!-- Entity POSTS -->
<g>
	<g>
		<rect x="265" y="9" width="90" height="28" fill="#80cdc1" stroke="none" stroke-width="0" opacity="1"/>
		<rect x="265" y="37" width="90" height="152" fill="#c7eae5" stroke="none" stroke-width="0" opacity="1"/>
		<rect x="265" y="9" width="90" height="180" fill="none" stroke="#35978f" stroke-width="3" opacity="1"/>
		<line x1="265" y1="37" x2="355" y2="37" stroke="#35978f" stroke-width="1.5"/>
	</g>
	<text x="290" y="29.3" fill="#000000" font-family="Arial Black" font-size="13">Posts</text>
	<text x="273" y="53.2" fill="#000000" font-family="Arial" font-size="14">id</text>
	<line x1="273" y1="56" x2="285" y2="56" stroke="#000000" stroke-width="1.2"/>
	<text x="273" y="71.2" fill="#000000" font-family="Arial" font-size="14">name</text>
	<text x="273" y="89.2" fill="#000000" font-family="Arial" font-size="14">slug</text>
	<text x="273" y="107.2" fill="#000000" font-family="Arial" font-size="14">excerpt</text>
	<text x="273" y="125.2" fill="#000000" font-family="Arial" font-size="14">content</text>
	<text x="273" y="143.2" fill="#000000" font-family="Arial" font-size="14">thumbnail</text>
	<text x="273" y="161.2" fill="#000000" font-family="Arial" font-size="14">created_at</text>
	<text x="273" y="179.2" fill="#000000" font-family="Arial" font-size="14">updated_at</text>
</g>

<!-- Entity SUBTYPES -->
<g>
	<g>
		<rect x="408" y="36" width="90" height="28" fill="#80cdc1" stroke="none" stroke-width="0" opacity="1"/>
		<rect x="408" y="64" width="90" height="98" fill="#c7eae5" stroke="none" stroke-width="0" opacity="1"/>
		<rect x="408" y="36" width="90" height="126" fill="none" stroke="#35978f" stroke-width="3" opacity="1"/>
		<line x1="408" y1="64" x2="498" y2="64" stroke="#35978f" stroke-width="1.5"/>
	</g>
	<text x="418" y="56.3" fill="#000000" font-family="Arial Black" font-size="13">SubTypes</text>
	<text x="416" y="80.2" fill="#000000" font-family="Arial" font-size="14">id</text>
	<line x1="416" y1="83" x2="428" y2="83" stroke="#000000" stroke-width="1.2"/>
	<text x="416" y="98.2" fill="#000000" font-family="Arial" font-size="14">name</text>
	<text x="416" y="116.2" fill="#000000" font-family="Arial" font-size="14">slug</text>
	<text x="416" y="134.2" fill="#000000" font-family="Arial" font-size="14">created_at</text>
	<text x="416" y="152.2" fill="#000000" font-family="Arial" font-size="14">updated_at</text>
</g>

<!-- Entity ENCYCLOPEDIA_SUBTYPES -->
<g>
	<g>
		<rect x="653" y="36" width="188" height="28" fill="#80cdc1" stroke="none" stroke-width="0" opacity="1"/>
		<rect x="653" y="64" width="188" height="98" fill="#c7eae5" stroke="none" stroke-width="0" opacity="1"/>
		<rect x="653" y="36" width="188" height="126" fill="none" stroke="#35978f" stroke-width="3" opacity="1"/>
		<line x1="653" y1="64" x2="841" y2="64" stroke="#35978f" stroke-width="1.5"/>
	</g>
	<text x="661" y="56.3" fill="#000000" font-family="Arial Black" font-size="13">Encyclopedia_SubTypes</text>
	<text x="661" y="80.2" fill="#000000" font-family="Arial" font-size="14">id</text>
	<line x1="661" y1="83" x2="673" y2="83" stroke="#000000" stroke-width="1.2"/>
	<text x="661" y="98.2" fill="#000000" font-family="Arial" font-size="14">encyclopedia_id</text>
	<text x="661" y="116.2" fill="#000000" font-family="Arial" font-size="14">subtype_id</text>
	<text x="661" y="134.2" fill="#000000" font-family="Arial" font-size="14">created_at</text>
	<text x="661" y="152.2" fill="#000000" font-family="Arial" font-size="14">updated_at</text>
</g>

<!-- Entity TYPES -->
<g>
	<g>
		<rect x="1023" y="36" width="90" height="28" fill="#80cdc1" stroke="none" stroke-width="0" opacity="1"/>
		<rect x="1023" y="64" width="90" height="98" fill="#c7eae5" stroke="none" stroke-width="0" opacity="1"/>
		<rect x="1023" y="36" width="90" height="126" fill="none" stroke="#35978f" stroke-width="3" opacity="1"/>
		<line x1="1023" y1="64" x2="1113" y2="64" stroke="#35978f" stroke-width="1.5"/>
	</g>
	<text x="1046" y="56.3" fill="#000000" font-family="Arial Black" font-size="13">Types</text>
	<text x="1031" y="80.2" fill="#000000" font-family="Arial" font-size="14">id</text>
	<line x1="1031" y1="83" x2="1043" y2="83" stroke="#000000" stroke-width="1.2"/>
	<text x="1031" y="98.2" fill="#000000" font-family="Arial" font-size="14">name</text>
	<text x="1031" y="116.2" fill="#000000" font-family="Arial" font-size="14">slug</text>
	<text x="1031" y="134.2" fill="#000000" font-family="Arial" font-size="14">created_at</text>
	<text x="1031" y="152.2" fill="#000000" font-family="Arial" font-size="14">updated_at</text>
</g>

<!-- Entity COMMENTS -->
<g>
	<g>
		<rect x="406" y="224" width="94" height="28" fill="#80cdc1" stroke="none" stroke-width="0" opacity="1"/>
		<rect x="406" y="252" width="94" height="80" fill="#c7eae5" stroke="none" stroke-width="0" opacity="1"/>
		<rect x="406" y="224" width="94" height="108" fill="none" stroke="#35978f" stroke-width="3" opacity="1"/>
		<line x1="406" y1="252" x2="500" y2="252" stroke="#35978f" stroke-width="1.5"/>
	</g>
	<text x="415" y="244.3" fill="#000000" font-family="Arial Black" font-size="13">Comments</text>
	<text x="414" y="268.2" fill="#000000" font-family="Arial" font-size="14">id</text>
	<line x1="414" y1="271" x2="426" y2="271" stroke="#000000" stroke-width="1.2"/>
	<text x="414" y="286.2" fill="#000000" font-family="Arial" font-size="14">content</text>
	<text x="414" y="304.2" fill="#000000" font-family="Arial" font-size="14">created_at</text>
	<text x="414" y="322.2" fill="#000000" font-family="Arial" font-size="14">updated_at</text>
</g>

<!-- Entity USERS -->
<g>
	<g>
		<rect x="701" y="188" width="92" height="28" fill="#80cdc1" stroke="none" stroke-width="0" opacity="1"/>
		<rect x="701" y="216" width="92" height="152" fill="#c7eae5" stroke="none" stroke-width="0" opacity="1"/>
		<rect x="701" y="188" width="92" height="180" fill="none" stroke="#35978f" stroke-width="3" opacity="1"/>
		<line x1="701" y1="216" x2="793" y2="216" stroke="#35978f" stroke-width="1.5"/>
	</g>
	<text x="726" y="208.3" fill="#000000" font-family="Arial Black" font-size="13">Users</text>
	<text x="709" y="232.2" fill="#000000" font-family="Arial" font-size="14">id</text>
	<line x1="709" y1="235" x2="721" y2="235" stroke="#000000" stroke-width="1.2"/>
	<text x="709" y="250.2" fill="#000000" font-family="Arial" font-size="14">pseudo</text>
	<text x="709" y="268.2" fill="#000000" font-family="Arial" font-size="14">avatar</text>
	<text x="709" y="286.2" fill="#000000" font-family="Arial" font-size="14">rgpd</text>
	<text x="709" y="304.2" fill="#000000" font-family="Arial" font-size="14">newsletters</text>
	<text x="709" y="322.2" fill="#000000" font-family="Arial" font-size="14">role</text>
	<text x="709" y="340.2" fill="#000000" font-family="Arial" font-size="14">created_at</text>
	<text x="709" y="358.2" fill="#000000" font-family="Arial" font-size="14">updated_at</text>
</g>

<!-- Entity ENCYCLOPEDIAS -->
<g>
	<g>
		<rect x="872" y="206" width="120" height="28" fill="#80cdc1" stroke="none" stroke-width="0" opacity="1"/>
		<rect x="872" y="234" width="120" height="116" fill="#c7eae5" stroke="none" stroke-width="0" opacity="1"/>
		<rect x="872" y="206" width="120" height="144" fill="none" stroke="#35978f" stroke-width="3" opacity="1"/>
		<line x1="872" y1="234" x2="992" y2="234" stroke="#35978f" stroke-width="1.5"/>
	</g>
	<text x="880" y="226.3" fill="#000000" font-family="Arial Black" font-size="13">Encyclopedias</text>
	<text x="880" y="250.2" fill="#000000" font-family="Arial" font-size="14">id</text>
	<line x1="880" y1="253" x2="892" y2="253" stroke="#000000" stroke-width="1.2"/>
	<text x="880" y="268.2" fill="#000000" font-family="Arial" font-size="14">title</text>
	<text x="880" y="286.2" fill="#000000" font-family="Arial" font-size="14">content</text>
	<text x="880" y="304.2" fill="#000000" font-family="Arial" font-size="14">thumbnail</text>
	<text x="880" y="322.2" fill="#000000" font-family="Arial" font-size="14">created_at</text>
	<text x="880" y="340.2" fill="#000000" font-family="Arial" font-size="14">updated_at</text>
</g>
</svg>